<svg xmlns="http://www.w3.org/2000/svg" xmlns:xlink="http://www.w3.org/1999/xlink" width="92.651" height="156.937" viewBox="0 0 86.86 147.128"><defs><clipPath id="s"><path d="M300 81h70v85h-70zm0 0"/></clipPath><clipPath id="t"><path d="M335.156 162.742s-33.265-61.058-34.691-81.656c-.031.625-.055 1.25-.055 1.887 0 19.187 34.746 82.957 34.746 82.957s34.742-63.77 34.742-82.957c0-.637-.02-1.262-.05-1.887-1.43 20.598-34.692 81.656-34.692 81.656"/></clipPath><clipPath id="q"><path d="M359 75h3v11h-3zm0 0"/></clipPath><clipPath id="r"><path d="M359.508 76.79a26.328 26.328 0 012.015 8.62c.032-.539.055-1.082.055-1.629 0-2.812-.441-5.52-1.254-8.062-.265.36-.539.719-.816 1.07"/></clipPath><clipPath id="o"><path d="M309 74h55v38h-55zm0 0"/></clipPath><clipPath id="p"><path d="M360.324 75.719a26.44 26.44 0 011.254 8.062c0 .547-.023 1.09-.055 1.63a26.328 26.328 0 00-2.015-8.622c-8.895 11.32-22.7 18.594-38.203 18.594-4.235 0-8.34-.547-12.258-1.567 3.95 10.172 13.664 17.465 25.137 17.856.046.004.09.004.132.004h.008c.043.004.09.004.133.004h.008c.02.004.043.004.063.004H334.676c.02 0 .04.004.055.004H335.021c.02 0 .039.004.058.004h.078c15.47 0 28.008-12.543 28.008-28.008v-.086-.106-.062c-.004-.008-.004-.015-.004-.023v-.016-.062-.043-.039-.043c0-.012 0-.02-.004-.032a27.94 27.94 0 00-1.676-9.074 48.52 48.52 0 01-1.156 1.621"/></clipPath><clipPath id="m"><path d="M334 83h30v29h-30zm0 0"/></clipPath><clipPath id="n"><path d="M363.156 83.172zm.004.043v-.012zm0 .039v-.008zm0 .043v-.012zm0 .035v-.004zm0 .074v-.015zm.004.043v-.02zm0 .043v-.02.02m0 .043v-.023zm0 .047v-.027zm0 .047v-.031zm0 .055v-.043zm-28.98 27.988zm.133.004h.008zm.14.004h.008-.008m.07.004h.005zm.067 0h.008zm.07 0h.012-.012m.067.004h.011-.011m.082 0h-.008.008m.058 0h.008zm.14 0h.009zm-.07 0h.012zm.137.004h.016zm0 0"/></clipPath><clipPath id="j"><path d="M301 49h68v36h-68zm0 0"/></clipPath><clipPath id="k"><path d="M301.848 82.824c0 .688.027 1.375.07 2.055 1.062-17.438 15.531-31.254 33.238-31.254 17.703 0 32.176 13.816 33.239 31.254.043-.68.07-1.367.07-2.055 0-18.398-14.914-33.308-33.309-33.308-18.398 0-33.308 14.91-33.308 33.308"/></clipPath><clipPath id="g"><path d="M308 57h53v29h-53zm0 0"/></clipPath><clipPath id="h"><path d="M308.734 83.781c0 .547.024 1.09.055 1.63.844-13.833 12.32-24.794 26.367-24.794 10.957 0 20.352 6.672 24.352 16.172.277-.352.55-.71.816-1.07-3.406-10.649-13.386-18.36-25.168-18.36-14.593 0-26.422 11.828-26.422 26.422"/></clipPath><clipPath id="d"><path d="M307 55h57v57h-57zm0 0"/></clipPath><clipPath id="e"><path d="M307.148 83.684c0 13.617 9.72 24.964 22.598 27.484-9.492-1.86-17.27-8.52-20.7-17.352a48.605 48.605 0 0012.259 1.567c15.504 0 29.308-7.274 38.203-18.594-4-9.5-13.395-16.172-24.352-16.172-14.047 0-25.523 10.961-26.367 24.793a28.164 28.164 0 01-.055-1.629c0-14.594 11.828-26.422 26.422-26.422 11.781 0 21.762 7.711 25.168 18.36a48.52 48.52 0 001.156-1.621 28.08 28.08 0 011.567 6.992c-1.309-14.254-13.297-25.414-27.89-25.414-15.47 0-28.009 12.539-28.009 28.008m55.899-2.575v-.02.02m.004.067c0-.024-.004-.043-.004-.067 0 .024.004.043.004.067m.008.062c-.004-.02-.004-.043-.008-.062.004.02.004.043.008.062m0 .028v-.028.028m.012.109l-.012-.11.012.11m0 .031v-.031.031m.012.156c0-.015 0-.03-.004-.046.004.015.004.03.004.046m.008.11a.938.938 0 00-.008-.11c.004.036.008.07.008.11m.004.047c0-.016 0-.032-.004-.047.004.016.004.031.004.047m.008.086c-.004-.028-.004-.059-.008-.086.004.027.004.058.008.086m0 .011v-.011.011m.004.051c0-.015-.004-.031-.004-.05 0 .019.004.035.004.05m.004.082c0-.027-.004-.054-.004-.082 0 .028.004.055.004.082m.004.059c0-.02-.004-.04-.004-.059 0 .02.004.04.004.059m.004.05c0-.019-.004-.035-.004-.05 0 .015.004.035.004.05m0 .051v-.05.05m.004.059c0-.02 0-.04-.004-.059.004.02.004.04.004.059m.004.07c0-.023 0-.047-.004-.07a.415.415 0 01.004.07m.004.078c0-.027 0-.054-.004-.078.004.028.004.051.004.078m.004.079c0-.028 0-.051-.004-.079.004.028.004.051.004.079m.004.054c0-.02 0-.039-.004-.054.004.015.004.035.004.054m.004.074c-.004-.027-.004-.05-.004-.074 0 .024 0 .047.004.074m0 .008v-.008.008m0 .024v-.024.024m.004.054c-.004-.02-.004-.039-.004-.054 0 .015 0 .035.004.054m0 .082v-.082.082m0 .032v-.032.032m.004.027c0-.012 0-.02-.004-.027.004.007.004.02.004.027m0 .094v-.094.094m0 .011v-.011.011m.004.004s0-.004-.004-.004c.004 0 .004.004.004.004m0 .008v-.008.008m0 .008v-.008.008m0 .008v-.008.008m0 .008v-.008.008m0 .117v-.117.117m.004.031c0-.012 0-.02-.004-.031 0 .011.004.023.004.031m0 .133v-.133.133m.004.015c0-.003-.004-.011-.004-.015 0 .004.004.012.004.015m0 .016v-.016.016m0 .043v-.031.031m0 .04v-.032.031m0 .043v-.031.031m0 .035v-.031.031m0 .012v-.012.012m0 .004v-.004.004m0 .012v-.012.012m0 .02v-.005.004m0 .004v-.004zm0 .004v-.004.004m.004.012c-.004-.004-.004-.008-.004-.012 0 .004 0 .008.004.012m0 .043v-.024zm0 .039v-.02zm0 .043v-.02zm0 .043v-.016.016m0 .043v-.012zm-28.008 28.05c15.469 0 28.008-12.543 28.008-28.007 0 15.464-12.54 28.007-28.008 28.007m-5.395-.52c-.004 0-.008-.003-.015-.003.008 0 .011.004.015.004m.211.039c-.07-.012-.14-.027-.21-.04.07.012.14.028.21.04m.016.004l-.016-.004.016.004m.105.02c-.035-.009-.07-.012-.105-.02.035.008.07.012.105.02m.012 0h-.012.012m.121.023l-.121-.024.121.024m.008 0h-.008.008m.11.02c-.036-.009-.075-.012-.11-.02.035.008.074.011.11.02m.023.003c-.008 0-.016-.004-.024-.004.008 0 .016.004.024.004m.113.02c-.039-.004-.074-.012-.113-.02.039.008.074.016.113.02m.023.004c-.008 0-.015-.004-.023-.004.008 0 .016.004.023.004m.047.008c-.015-.004-.03-.004-.047-.008.016.004.032.004.047.008m.043.008c-.015-.004-.03-.004-.043-.008.012.004.028.004.043.008m.036.004c-.012 0-.024-.004-.036-.004.012 0 .024.004.036.004m.101.015c-.031-.004-.066-.008-.101-.015.035.008.07.011.101.015m.043.008a.197.197 0 01-.043-.008c.016.004.031.008.043.008m.035.008c-.011-.004-.023-.004-.035-.008.012.004.024.004.035.008m.04.004c-.012 0-.024-.004-.04-.004.012 0 .028.004.04.004m.019.004c-.004 0-.012-.004-.02-.004.008 0 .016.004.02.004m.023.004c-.008-.004-.015-.004-.023-.004.008 0 .015 0 .023.004m.098.016c-.031-.004-.066-.012-.098-.016.031.004.063.012.098.016m.05.004c-.015 0-.034-.004-.05-.004.016 0 .035.004.05.004M331.246 111.419l-.074-.011.074.011m.031.004c-.012 0-.02-.004-.031-.004.012 0 .02.004.031.004m.031.004c-.011 0-.023-.004-.03-.004.007 0 .019.004.03.004m.043.008c-.015-.004-.03-.004-.043-.008.012.004.028.004.043.008m.11.012l-.11-.012.11.012m.043.008c-.016-.004-.028-.004-.043-.008.015.004.027.004.043.008m.03.004c-.01 0-.019-.004-.03-.004.011 0 .02.004.03.004m.032.004c-.012 0-.023-.004-.031-.004.008 0 .02.004.031.004m.047.008c-.016-.004-.031-.004-.047-.008.016.004.031.004.047.008m.05.004c-.015 0-.03-.004-.05-.004.02 0 .035.004.05.004m.055.008c-.02-.004-.035-.004-.054-.008.02.004.035.004.054.008m.02.004c-.004-.004-.012-.004-.02-.004.008 0 .016 0 .02.004m.023 0h-.023.023m.067.008c-.024 0-.043-.004-.067-.008.024.004.043.008.067.008m.047.004c-.016 0-.032 0-.047-.004.015.004.03.004.047.004m.125.016h-.024.024m.023.004c-.008 0-.016 0-.023-.004.008.004.015.004.023.004m.066.008c-.023-.004-.043-.004-.066-.008.023.004.043.004.066.008m.043.004c-.015 0-.03-.004-.043-.004.012 0 .028.004.043.004m.11.011l-.11-.011.11.011m.039.004c-.012 0-.024-.004-.04-.004.016 0 .028.004.04.004m.07.008c-.023-.004-.047-.004-.07-.008.023.004.047.004.07.008m.027.004c-.008-.004-.019-.004-.027-.004.008 0 .02 0 .027.004m.063.004c-.02 0-.04-.004-.063-.004.024 0 .043.004.063.004m.062.008c-.019-.004-.039-.004-.062-.008.023.004.043.004.062.008m.043.004c-.015-.004-.027-.004-.043-.004.016 0 .028 0 .043.004m.067.004c-.024 0-.047-.004-.067-.004.02 0 .043.004.067.004m.031.004c-.012 0-.023-.004-.031-.004.008 0 .02.004.031.004m.16.016c-.011-.004-.023-.004-.035-.004.012 0 .023 0 .035.004m.07.004c-.023-.004-.046-.004-.07-.004.024 0 .047 0 .07.004m.024.004c-.008-.004-.016-.004-.023-.004.008 0 .015 0 .023.004m.129.008c-.043-.004-.086-.008-.129-.008.043 0 .086.004.129.008m.047.004c-.016 0-.031-.004-.047-.004.015 0 .031.004.047.004m.062.004c-.02 0-.039-.004-.062-.004.023 0 .043.004.062.004m.047.004c-.015 0-.031-.004-.047-.004.016 0 .031.004.047.004m.047.004c-.016-.004-.031-.004-.047-.004.016 0 .031 0 .047.004m.055.004c-.016 0-.04-.004-.055-.004.016 0 .04.004.055.004m.058.004c-.02-.004-.035-.004-.058-.004.023 0 .039 0 .058.004m.028 0h-.028.028m.027.004c-.008-.004-.016-.004-.027-.004.008 0 .02 0 .027.004m.094.004c-.031 0-.063-.004-.094-.004.031 0 .063.004.094.004m.054.004c-.015 0-.035-.004-.054-.004.02 0 .039.004.054.004m.075.004c-.024 0-.051-.004-.075-.004.024 0 .051.004.075.004m.039 0h-.04.04m.105.008c-.035-.004-.07-.004-.105-.008.035.004.07.004.105.008m.043 0h-.043.043m.09.004c-.027 0-.059-.004-.09-.004.031 0 .063.004.09.004m.012 0h-.012.012m.011.004c-.004-.004-.008-.004-.011-.004.004 0 .008 0 .011.004m.114.004c-.04-.004-.074-.004-.114-.004.04 0 .075 0 .114.004m.02 0h-.02.02m.015 0h-.016.016m.117.004c-.04 0-.078 0-.117-.004.039.004.078.004.117.004m.133.004c-.043 0-.086 0-.133-.004.047.004.09.004.133.004m.14.004c-.043 0-.09 0-.132-.004.043.004.09.004.132.004m.055.004c-.015 0-.031 0-.047-.004.016.004.031.004.047.004m.082 0h-.062.062m-.082 0h.016-.016m.152 0h-.062.062m.067.004c-.016 0-.035-.004-.055-.004.02 0 .04.004.055.004m.043 0h-.031.03m0 0h.032-.031m.168 0h-.063.063m-.13 0h.06-.06m.267.004c-.02 0-.04-.004-.059-.004.02 0 .04.004.059.004m-.125-.004h.058-.058"/></clipPath><clipPath id="a"><path d="M300 48h70v118h-70zm0 0"/></clipPath><clipPath id="b"><path d="M300.41 82.973c0-.637.024-1.262.055-1.887 1.426 20.598 34.691 81.656 34.691 81.656s33.262-61.058 34.692-81.656c.03.625.05 1.25.05 1.887 0-19.188-15.554-34.743-34.742-34.743-19.187 0-34.742 15.555-34.746 34.743m1.438-.149c0-18.398 14.91-33.308 33.308-33.308 18.395 0 33.309 14.91 33.309 33.308 0 .688-.027 1.375-.07 2.055-1.063-17.438-15.536-31.254-33.239-31.254-17.707 0-32.176 13.816-33.238 31.254a32.59 32.59 0 01-.07-2.055m5.3.86c0-15.47 12.54-28.008 28.008-28.008 15.297 0 27.73 12.261 28 27.496a.084.084 0 01.004.031V83.406c0 .008 0 .016.004.024v.254c0 15.464-12.539 28.007-28.008 28.007h-.078c-.02 0-.039-.004-.058-.004H334.73c-.015 0-.035-.004-.055-.004h-.148c-.02 0-.043 0-.063-.004h-.008c-.043 0-.09 0-.133-.004h-.008c-.043 0-.085 0-.132-.004-15.02-.511-27.036-12.847-27.036-27.988m28.008 82.246s-34.746-63.77-34.746-82.957c0 19.188 34.746 82.961 34.746 82.961s34.742-63.773 34.742-82.96c0 19.187-34.742 82.956-34.742 82.956"/></clipPath><radialGradient id="l" gradientUnits="userSpaceOnUse" cx="0" cy="0" fx="0" fy="0" r="87.219" gradientTransform="matrix(0 1 1 0 334.6 62.42)"><stop offset="0" stop-color="#f14975"/><stop offset=".016" stop-color="#f14875"/><stop offset=".027" stop-color="#f14774"/><stop offset=".039" stop-color="#f14774"/><stop offset=".051" stop-color="#f14674"/><stop offset=".063" stop-color="#f14574"/><stop offset=".074" stop-color="#f14574"/><stop offset=".086" stop-color="#f14474"/><stop offset=".098" stop-color="#f14474"/><stop offset=".102" stop-color="#f14373"/><stop offset=".105" stop-color="#f14373"/><stop offset=".117" stop-color="#f14273"/><stop offset=".129" stop-color="#f14273"/><stop offset=".141" stop-color="#f14173"/><stop offset=".152" stop-color="#f14173"/><stop offset=".156" stop-color="#f14072"/><stop offset=".168" stop-color="#f03f72"/><stop offset=".18" stop-color="#f03f72"/><stop offset=".191" stop-color="#f03e72"/><stop offset=".203" stop-color="#f03e72"/><stop offset=".207" stop-color="#f03d71"/><stop offset=".219" stop-color="#f03d71"/><stop offset=".23" stop-color="#f03c72"/><stop offset=".242" stop-color="#f03b71"/><stop offset=".254" stop-color="#f03b71"/><stop offset=".262" stop-color="#f03a71"/><stop offset=".27" stop-color="#f03a71"/><stop offset=".277" stop-color="#f03971"/><stop offset=".285" stop-color="#f03971"/><stop offset=".293" stop-color="#f03870"/><stop offset=".301" stop-color="#f03870"/><stop offset=".309" stop-color="#f03870"/><stop offset=".316" stop-color="#f03770"/><stop offset=".324" stop-color="#f0376f"/><stop offset=".332" stop-color="#f0366f"/><stop offset=".34" stop-color="#f0366f"/><stop offset=".348" stop-color="#f0356f"/><stop offset=".355" stop-color="#f0356f"/><stop offset=".363" stop-color="#f0346f"/><stop offset=".383" stop-color="#f0346e"/><stop offset=".391" stop-color="#f0346e"/><stop offset=".406" stop-color="#f0336e"/><stop offset=".422" stop-color="#ef326e"/><stop offset=".438" stop-color="#ef316d"/><stop offset=".453" stop-color="#ef306d"/><stop offset=".469" stop-color="#ef2f6d"/><stop offset=".484" stop-color="#ef2e6d"/><stop offset=".5" stop-color="#ef2e6c"/><stop offset=".516" stop-color="#ef2d6c"/><stop offset=".527" stop-color="#ef2c6b"/><stop offset=".539" stop-color="#ef2b6b"/><stop offset=".551" stop-color="#ef2b6b"/><stop offset=".563" stop-color="#ef2b6b"/><stop offset=".57" stop-color="#ef2b6b"/><stop offset=".582" stop-color="#ef2a6b"/><stop offset=".594" stop-color="#ef296b"/><stop offset=".617" stop-color="#ef296a"/><stop offset=".629" stop-color="#ef286a"/><stop offset=".637" stop-color="#ef286a"/><stop offset=".645" stop-color="#ef276a"/><stop offset=".652" stop-color="#ef276a"/><stop offset=".66" stop-color="#ef276a"/><stop offset=".668" stop-color="#ef2669"/><stop offset=".688" stop-color="#ee2669"/><stop offset=".695" stop-color="#ee2668"/><stop offset=".703" stop-color="#ee2568"/><stop offset=".719" stop-color="#ee2468"/><stop offset=".734" stop-color="#ee2468"/><stop offset=".75" stop-color="#ee2367"/><stop offset=".766" stop-color="#ee2367"/><stop offset=".777" stop-color="#ee2267"/><stop offset=".789" stop-color="#ee2267"/><stop offset=".813" stop-color="#ee2166"/><stop offset=".836" stop-color="#ee2166"/><stop offset=".844" stop-color="#ee2066"/><stop offset=".852" stop-color="#ee2066"/><stop offset=".867" stop-color="#ee1f65"/><stop offset=".898" stop-color="#ee1e65"/><stop offset=".922" stop-color="#ee1e64"/><stop offset=".93" stop-color="#ee1e64"/><stop offset=".945" stop-color="#ee1d64"/><stop offset=".957" stop-color="#ee1d64"/><stop offset=".965" stop-color="#ee1d64"/><stop offset=".973" stop-color="#ee1d64"/><stop offset=".977" stop-color="#ee1d63"/><stop offset=".988" stop-color="#ee1c63"/><stop offset="1" stop-color="#ee1c63"/></radialGradient><radialGradient id="i" gradientUnits="userSpaceOnUse" cx="0" cy="0" fx="0" fy="0" r="28.007" gradientTransform="matrix(1 0 0 -1 335.162 83.685)"><stop offset="0" stop-color="#fff"/><stop offset="1" stop-color="#fff"/></radialGradient><radialGradient id="f" gradientUnits="userSpaceOnUse" cx="0" cy="0" fx="0" fy="0" r="28.007" gradientTransform="matrix(1 0 0 -1 335.131 83.7)"><stop offset="0" stop-color="#fff"/><stop offset=".25" stop-color="#fff"/><stop offset=".438" stop-color="#fff"/><stop offset=".473" stop-color="#fff"/><stop offset=".488" stop-color="#feffff"/><stop offset=".52" stop-color="#feffff"/><stop offset=".523" stop-color="#fdfefe"/><stop offset=".535" stop-color="#fdfdfd"/><stop offset=".547" stop-color="#fdfdfd"/><stop offset=".551" stop-color="#fdfcfd"/><stop offset=".555" stop-color="#fcfcfc"/><stop offset=".566" stop-color="#fcfcfc"/><stop offset=".57" stop-color="#fcfcfc"/><stop offset=".574" stop-color="#fbfcfc"/><stop offset=".586" stop-color="#fbfcfc"/><stop offset=".59" stop-color="#fbfbfc"/><stop offset=".594" stop-color="#fafbfb"/><stop offset=".605" stop-color="#fafafa"/><stop offset=".629" stop-color="#f9f9f9"/><stop offset=".637" stop-color="#f8f9f9"/><stop offset=".645" stop-color="#f8f8f9"/><stop offset=".652" stop-color="#f8f8f8"/><stop offset=".656" stop-color="#f7f7f7"/><stop offset=".66" stop-color="#f7f7f7"/><stop offset=".668" stop-color="#f6f6f6"/><stop offset=".688" stop-color="#f6f5f5"/><stop offset=".691" stop-color="#f5f4f4"/><stop offset=".695" stop-color="#f5f4f4"/><stop offset=".699" stop-color="#f4f4f3"/><stop offset=".703" stop-color="#f4f3f3"/><stop offset=".707" stop-color="#f3f3f2"/><stop offset=".715" stop-color="#f2f2f1"/><stop offset=".719" stop-color="#f2f1f1"/><stop offset=".723" stop-color="#f1f0f0"/><stop offset=".727" stop-color="#f0f0f0"/><stop offset=".73" stop-color="#f0efef"/><stop offset=".734" stop-color="#efefee"/><stop offset=".738" stop-color="#efeeee"/><stop offset=".742" stop-color="#eee"/><stop offset=".746" stop-color="#ededed"/><stop offset=".75" stop-color="#edecec"/><stop offset=".754" stop-color="#ececeb"/><stop offset=".758" stop-color="#ecebeb"/><stop offset=".762" stop-color="#ebebea"/><stop offset=".766" stop-color="#ebeae9"/><stop offset=".77" stop-color="#ebe9e9"/><stop offset=".773" stop-color="#eae9e8"/><stop offset=".777" stop-color="#e9e8e7"/><stop offset=".781" stop-color="#e8e8e7"/><stop offset=".785" stop-color="#e8e7e6"/><stop offset=".789" stop-color="#e7e6e5"/><stop offset=".793" stop-color="#e6e5e5"/><stop offset=".797" stop-color="#e5e4e4"/><stop offset=".801" stop-color="#e5e4e4"/><stop offset=".805" stop-color="#e4e3e3"/><stop offset=".809" stop-color="#e3e3e2"/><stop offset=".813" stop-color="#e2e2e1"/><stop offset=".816" stop-color="#e2e2e0"/><stop offset=".82" stop-color="#e2e1df"/><stop offset=".824" stop-color="#e1e0de"/><stop offset=".828" stop-color="#e0dfdd"/><stop offset=".832" stop-color="#dfdedc"/><stop offset=".836" stop-color="#dfdddb"/><stop offset=".84" stop-color="#dedcda"/><stop offset=".844" stop-color="#dddbd9"/><stop offset=".848" stop-color="#dbd9d9"/><stop offset=".852" stop-color="#dad8d8"/><stop offset=".855" stop-color="#dad7d7"/><stop offset=".859" stop-color="#d9d7d6"/><stop offset=".863" stop-color="#d8d6d5"/><stop offset=".867" stop-color="#d7d5d3"/><stop offset=".871" stop-color="#d6d4d3"/><stop offset=".875" stop-color="#d5d3d2"/><stop offset=".879" stop-color="#d4d2d1"/><stop offset=".883" stop-color="#d3d1d0"/><stop offset=".887" stop-color="#d2d0ce"/><stop offset=".891" stop-color="#d0cece"/><stop offset=".895" stop-color="#cfcdcc"/><stop offset=".898" stop-color="#cecbca"/><stop offset=".902" stop-color="#cdcac9"/><stop offset=".906" stop-color="#cbc8c8"/><stop offset=".91" stop-color="#cac7c7"/><stop offset=".914" stop-color="#c9c6c5"/><stop offset=".918" stop-color="#c8c5c4"/><stop offset=".922" stop-color="#c6c3c3"/><stop offset=".926" stop-color="#c5c2c2"/><stop offset=".93" stop-color="#c3c1c1"/><stop offset=".934" stop-color="#c2bfbf"/><stop offset=".938" stop-color="#c1bebd"/><stop offset=".941" stop-color="#bfbdbc"/><stop offset=".945" stop-color="#bebbbb"/><stop offset=".949" stop-color="#bcb9b9"/><stop offset=".953" stop-color="#bbb8b8"/><stop offset=".957" stop-color="#b9b7b7"/><stop offset=".961" stop-color="#b8b6b6"/><stop offset=".965" stop-color="#b7b4b4"/><stop offset=".969" stop-color="#b5b2b3"/><stop offset=".973" stop-color="#b3b1b1"/><stop offset=".977" stop-color="#b2afaf"/><stop offset=".98" stop-color="#b0adae"/><stop offset=".984" stop-color="#aeacac"/><stop offset=".988" stop-color="#adaaaa"/><stop offset=".992" stop-color="#aba9a9"/><stop offset=".996" stop-color="#a9a7a8"/><stop offset="1" stop-color="#a8a6a7"/></radialGradient><radialGradient id="c" gradientUnits="userSpaceOnUse" cx="0" cy="0" fx="0" fy="0" r="87.219" gradientTransform="matrix(0 1 1 0 334.6 62.42)"><stop offset="0" stop-color="#ee283e"/><stop offset=".008" stop-color="#ee283d"/><stop offset=".02" stop-color="#ee283d"/><stop offset=".023" stop-color="#ee283d"/><stop offset=".035" stop-color="#ee273d"/><stop offset=".039" stop-color="#ee273d"/><stop offset=".043" stop-color="#ee273d"/><stop offset=".047" stop-color="#ee263c"/><stop offset=".051" stop-color="#ee263c"/><stop offset=".055" stop-color="#ee263c"/><stop offset=".066" stop-color="#ee263b"/><stop offset=".078" stop-color="#ee263b"/><stop offset=".082" stop-color="#ee253b"/><stop offset=".086" stop-color="#ee253b"/><stop offset=".098" stop-color="#ee253b"/><stop offset=".109" stop-color="#ee243a"/><stop offset=".121" stop-color="#ee243a"/><stop offset=".125" stop-color="#ee243a"/><stop offset=".129" stop-color="#ee233a"/><stop offset=".133" stop-color="#ee233a"/><stop offset=".137" stop-color="#ee2339"/><stop offset=".141" stop-color="#ee2339"/><stop offset=".145" stop-color="#ee2339"/><stop offset=".156" stop-color="#ee2238"/><stop offset=".168" stop-color="#ee2238"/><stop offset=".172" stop-color="#ee2238"/><stop offset=".176" stop-color="#ee2238"/><stop offset=".18" stop-color="#ed2138"/><stop offset=".184" stop-color="#ed2138"/><stop offset=".188" stop-color="#ed2138"/><stop offset=".191" stop-color="#ec2138"/><stop offset=".195" stop-color="#ec2138"/><stop offset=".199" stop-color="#eb2138"/><stop offset=".203" stop-color="#eb2138"/><stop offset=".207" stop-color="#ea2138"/><stop offset=".211" stop-color="#ea2138"/><stop offset=".215" stop-color="#ea2138"/><stop offset=".219" stop-color="#ea2138"/><stop offset=".223" stop-color="#e92138"/><stop offset=".227" stop-color="#e92138"/><stop offset=".23" stop-color="#e92138"/><stop offset=".234" stop-color="#e92137"/><stop offset=".238" stop-color="#e82137"/><stop offset=".242" stop-color="#e82137"/><stop offset=".246" stop-color="#e82037"/><stop offset=".25" stop-color="#e72038"/><stop offset=".254" stop-color="#e72038"/><stop offset=".262" stop-color="#e62038"/><stop offset=".27" stop-color="#e52038"/><stop offset=".277" stop-color="#e42038"/><stop offset=".285" stop-color="#e42038"/><stop offset=".293" stop-color="#e32038"/><stop offset=".301" stop-color="#e31f38"/><stop offset=".309" stop-color="#e21f38"/><stop offset=".313" stop-color="#e21f37"/><stop offset=".316" stop-color="#e21f37"/><stop offset=".324" stop-color="#e11f37"/><stop offset=".332" stop-color="#e01f37"/><stop offset=".34" stop-color="#e01f37"/><stop offset=".348" stop-color="#df1f37"/><stop offset=".355" stop-color="#de1f37"/><stop offset=".363" stop-color="#de2037"/><stop offset=".371" stop-color="#dd2037"/><stop offset=".379" stop-color="#dc1f37"/><stop offset=".383" stop-color="#dc1f37"/><stop offset=".387" stop-color="#db1f37"/><stop offset=".391" stop-color="#db1f37"/><stop offset=".398" stop-color="#da1f37"/><stop offset=".406" stop-color="#d91f36"/><stop offset=".41" stop-color="#d91f36"/><stop offset=".418" stop-color="#d81f36"/><stop offset=".426" stop-color="#d71f36"/><stop offset=".441" stop-color="#d61e36"/><stop offset=".449" stop-color="#d51e36"/><stop offset=".457" stop-color="#d51e36"/><stop offset=".465" stop-color="#d41e36"/><stop offset=".473" stop-color="#d31e36"/><stop offset=".48" stop-color="#d21e36"/><stop offset=".488" stop-color="#d11e36"/><stop offset=".496" stop-color="#d01d36"/><stop offset=".512" stop-color="#cf1d36"/><stop offset=".523" stop-color="#cf1d36"/><stop offset=".527" stop-color="#ce1d36"/><stop offset=".531" stop-color="#ce1c36"/><stop offset=".535" stop-color="#cd1c36"/><stop offset=".539" stop-color="#cd1c36"/><stop offset=".543" stop-color="#cc1c36"/><stop offset=".547" stop-color="#cc1c36"/><stop offset=".551" stop-color="#cb1c36"/><stop offset=".555" stop-color="#cb1c36"/><stop offset=".559" stop-color="#cb1c36"/><stop offset=".563" stop-color="#ca1c36"/><stop offset=".566" stop-color="#c91c36"/><stop offset=".57" stop-color="#c91c36"/><stop offset=".574" stop-color="#c81c36"/><stop offset=".578" stop-color="#c81c36"/><stop offset=".582" stop-color="#c71c36"/><stop offset=".586" stop-color="#c71c36"/><stop offset=".59" stop-color="#c71c36"/><stop offset=".594" stop-color="#c61c35"/><stop offset=".605" stop-color="#c51c35"/><stop offset=".609" stop-color="#c51c35"/><stop offset=".613" stop-color="#c51c35"/><stop offset=".617" stop-color="#c41c35"/><stop offset=".621" stop-color="#c31c35"/><stop offset=".625" stop-color="#c31c35"/><stop offset=".629" stop-color="#c21c35"/><stop offset=".637" stop-color="#c21b35"/><stop offset=".645" stop-color="#c11c35"/><stop offset=".652" stop-color="#c01c35"/><stop offset=".66" stop-color="#bf1c35"/><stop offset=".668" stop-color="#be1b35"/><stop offset=".676" stop-color="#be1b35"/><stop offset=".684" stop-color="#bd1b35"/><stop offset=".688" stop-color="#bd1b34"/><stop offset=".695" stop-color="#bc1b34"/><stop offset=".703" stop-color="#bb1a34"/><stop offset=".711" stop-color="#ba1a34"/><stop offset=".719" stop-color="#b91a34"/><stop offset=".727" stop-color="#b91a34"/><stop offset=".734" stop-color="#b81a35"/><stop offset=".742" stop-color="#b71a35"/><stop offset=".75" stop-color="#b61a35"/><stop offset=".758" stop-color="#b61a35"/><stop offset=".762" stop-color="#b61a35"/><stop offset=".766" stop-color="#b51a35"/><stop offset=".77" stop-color="#b51a35"/><stop offset=".773" stop-color="#b41a35"/><stop offset=".777" stop-color="#b41a34"/><stop offset=".781" stop-color="#b31a34"/><stop offset=".785" stop-color="#b31a34"/><stop offset=".789" stop-color="#b21a34"/><stop offset=".793" stop-color="#b21a34"/><stop offset=".797" stop-color="#b11a34"/><stop offset=".801" stop-color="#b11a34"/><stop offset=".805" stop-color="#b11a33"/><stop offset=".809" stop-color="#b01a33"/><stop offset=".813" stop-color="#b01a33"/><stop offset=".816" stop-color="#af1a33"/><stop offset=".824" stop-color="#ae1a33"/><stop offset=".832" stop-color="#ae1a33"/><stop offset=".84" stop-color="#ad1a33"/><stop offset=".848" stop-color="#ac1933"/><stop offset=".855" stop-color="#ac1933"/><stop offset=".859" stop-color="#ab1933"/><stop offset=".863" stop-color="#ab1932"/><stop offset=".867" stop-color="#aa1932"/><stop offset=".871" stop-color="#aa1932"/><stop offset=".875" stop-color="#a91932"/><stop offset=".883" stop-color="#a81932"/><stop offset=".887" stop-color="#a81932"/><stop offset=".891" stop-color="#a71932"/><stop offset=".895" stop-color="#a71932"/><stop offset=".898" stop-color="#a71932"/><stop offset=".902" stop-color="#a61932"/><stop offset=".906" stop-color="#a61932"/><stop offset=".91" stop-color="#a51932"/><stop offset=".918" stop-color="#a51932"/><stop offset=".926" stop-color="#a41933"/><stop offset=".934" stop-color="#a31833"/><stop offset=".938" stop-color="#a31833"/><stop offset=".941" stop-color="#a21833"/><stop offset=".945" stop-color="#a21833"/><stop offset=".949" stop-color="#a11832"/><stop offset=".953" stop-color="#a11832"/><stop offset=".957" stop-color="#a11832"/><stop offset=".965" stop-color="#a01832"/><stop offset=".973" stop-color="#9f1832"/><stop offset=".977" stop-color="#9f1832"/><stop offset=".98" stop-color="#9f1832"/><stop offset=".984" stop-color="#9e1832"/><stop offset=".988" stop-color="#9e1832"/><stop offset=".992" stop-color="#9d1832"/><stop offset="1" stop-color="#9d1832"/></radialGradient></defs><g transform="translate(306.287 509.773)"><ellipse cx="-263.073" cy="-464.074" rx="36.786" ry="36.429" fill="#fff"/><g transform="matrix(1.25 0 0 1.25 -681.8 -570.061)" clip-path="url(#a)"><g clip-path="url(#b)"><path d="M300.41 48.23h69.488v117.704H300.41zm0 0" fill="url(#c)"/></g></g><g transform="matrix(1.25 0 0 1.25 -681.8 -570.061)" clip-path="url(#d)"><g clip-path="url(#e)"><path d="M307.148 111.691V55.676h56.016v56.015zm0 0" fill="url(#f)"/></g></g><g transform="matrix(1.25 0 0 1.25 -681.8 -570.061)" clip-path="url(#g)"><g clip-path="url(#h)"><path d="M308.734 85.41V57.36h51.59v28.05zm0 0" fill="url(#i)"/></g></g><g transform="matrix(1.25 0 0 1.25 -681.8 -570.061)" clip-path="url(#j)"><g clip-path="url(#k)"><path d="M301.848 49.516h66.617v35.363h-66.617zm0 0" fill="url(#l)"/></g></g><g transform="matrix(1.25 0 0 1.25 -681.8 -570.061)" clip-path="url(#m)"><g clip-path="url(#n)"><use height="100%" width="100%" transform="matrix(.48 0 0 -.48 333.595 112.37)" xlink:href="#image152859"/></g></g><g transform="matrix(1.25 0 0 1.25 -681.8 -570.061)" clip-path="url(#o)"><g clip-path="url(#p)"><use height="100%" width="100%" transform="matrix(.48 0 0 -.48 308.155 112.37)" xlink:href="#image152862"/></g></g><g transform="matrix(1.25 0 0 1.25 -681.8 -570.061)" clip-path="url(#q)"><g clip-path="url(#r)"><use height="100%" width="100%" transform="matrix(.48 0 0 -.48 358.555 85.97)" xlink:href="#image152865"/></g></g><g transform="matrix(1.25 0 0 1.25 -681.8 -570.061)" clip-path="url(#s)"><g clip-path="url(#t)"><use height="100%" width="100%" transform="matrix(.48 0 0 -.48 299.515 166.61)" xlink:href="#image152868"/></g></g><path d="M-262.059-488.855c3.623 2.553 5.147 6.01 4.634 10.405 2.441-4.092-.093-9.39-4.634-10.405M-251.365-491.902c.283-.166.58-.323.888-.454.23-.103.454-.186.684-.269a9.233 9.233 0 013.423-.522 32.895 32.895 0 00-14.175-4.331c.361.502.683 1.05.947 1.64.18.405.318.825.435 1.245-2.1-.927-4.644-.869-6.734.46 4.356-.753 7.89.605 10.63 4.076a6.679 6.679 0 00-2.734-3.896 9.269 9.269 0 016.636 2.05M-282.25-491.321a9.163 9.163 0 014.952-.376 9.251 9.251 0 01.298-2.725 32.816 32.816 0 00-5.25 3.1" fill="#bf1c2b"/><path d="M-267.127-460.535c1.592.42 3.389.625 5.137.625 1.752 0 3.55-.205 5.136-.625.381 7.05 8.037 15.737 17.91 18.911 5.67-5.942 9.15-13.984 9.15-22.842 0-8.174-2.968-15.65-7.875-21.426a9.262 9.262 0 01-5.278 10.445 9.126 9.126 0 01-5.464.62c1.904-.59 3.584-1.958 4.443-3.926-3.193 3.067-6.88 3.906-11.094 2.564 1.387 1.24 3.1 1.762 4.78 1.694-2.329 1.836-4.604 4.19-6.215 7.12a18.529 18.529 0 00-1.953 5.365c-1.075.196-2.27.308-3.54.308-1.329 0-2.574-.122-3.687-.337a19.685 19.685 0 00-2.192-5.2 21.41 21.41 0 00-3.716-4.57 24.857 24.857 0 00-1.841-1.558 7.118 7.118 0 004.888-1.006c-4.36.757-7.896-.61-10.635-4.082.518 2.031 1.875 3.55 3.564 4.395-4.604 1.875-9.897-.225-11.938-4.8a9.23 9.23 0 01.185-7.915c-5.37 5.888-8.647 13.715-8.647 22.31 0 9.067 3.647 17.28 9.55 23.261 10.553-2.759 18.936-11.948 19.332-19.331" fill="#bf1c2b"/></g></svg>