<svg xmlns="http://www.w3.org/2000/svg" xmlns:xlink="http://www.w3.org/1999/xlink" width="92.651" height="156.937" viewBox="0 0 86.86 147.128"><defs><clipPath id="a"><path d="M486 48h71v118h-71zm0 0"/></clipPath><clipPath id="b"><path d="M486.59 82.973c0-.637.02-1.262.055-1.891 1.425 20.602 34.691 81.66 34.691 81.66s33.262-61.058 34.687-81.66c.036.629.055 1.254.055 1.89-.004-19.187-15.558-34.742-34.742-34.742-19.191 0-34.742 15.555-34.746 34.743m1.433-.149c0-18.398 14.915-33.308 33.313-33.308 18.395 0 33.305 14.91 33.305 33.308 0 .688-.028 1.375-.067 2.055-1.062-17.438-15.535-31.254-33.238-31.254-17.707 0-32.18 13.816-33.242 31.254-.04-.68-.07-1.367-.07-2.055m32.34 28.848c-15.02-.512-27.04-12.848-27.04-27.988 0-15.47 12.543-28.008 28.012-28.008 15.293 0 27.727 12.261 28 27.496V83.254c.004.012.004.023.004.031v.399c0 15.464-12.54 28.007-28.004 28.007h-.078c-.02 0-.04-.004-.063-.004H520.91c-.02 0-.04-.004-.059-.004H520.706c-.02 0-.043 0-.066-.004h-.004c-.047 0-.09 0-.133-.004h-.008c-.043 0-.09 0-.133-.004m3.82 48.926c8.305-15.734 31.895-61.812 31.895-77.625 0 15.813-23.59 61.89-31.894 77.625M486.59 82.973c0 16.324 25.137 64.898 32.648 79.047-7.511-14.149-32.648-62.727-32.648-79.047zm36.84 79.047c.234-.442.484-.918.754-1.422-.27.504-.52.98-.754 1.422m-2.094 3.91s.773-1.422 2.094-3.91c-1.32 2.488-2.094 3.91-2.094 3.91m0 0s-.777-1.422-2.098-3.91c1.32 2.488 2.098 3.91 2.098 3.91"/></clipPath><clipPath id="d"><path d="M493 55h57v57h-57zm0 0"/></clipPath><clipPath id="e"><path d="M493.324 83.684c0 13.535 9.61 24.832 22.375 27.437-9.394-1.918-17.07-8.543-20.472-17.305a48.582 48.582 0 0012.257 1.567c15.5 0 29.305-7.274 38.203-18.594-4.003-9.5-13.398-16.172-24.351-16.172-14.047 0-25.527 10.961-26.367 24.793a24.982 24.982 0 01-.059-1.629c0-14.594 11.832-26.422 26.426-26.422 11.777 0 21.758 7.711 25.168 18.36a43.35 43.35 0 001.152-1.621 27.913 27.913 0 011.625 7.75c-.941-14.614-13.097-26.172-27.945-26.172-15.469 0-28.012 12.539-28.012 28.008m55.957-1.832v-.004.004m.008.128c-.004-.043-.004-.085-.008-.128.004.043.004.086.008.128m0 .004v-.004.004m.012.153c-.004-.004-.004-.008-.004-.008 0 .004 0 .004.004.008m.012.277l-.012-.277.012.277m0 .02v-.02.02m.008.128c-.004-.042-.004-.085-.008-.128.004.043.004.086.008.128m0 .032v-.032.032m.004.12c-.004-.038-.004-.081-.004-.12 0 .039 0 .082.004.12m0 .016v-.015.015m.004.125c0-.043-.004-.085-.004-.125 0 .04.004.082.004.125m0 .028v-.028.028m.004.129c0-.043-.004-.086-.004-.13 0 .044.004.087.004.13m0 .004v-.004.004m0 .004v-.004.004m0 .003v-.003.003m0 .016v-.016.016m.004.133c0-.047 0-.09-.004-.133.004.043.004.086.004.133m0 .015v-.015.015m0 .016v-.016.016m0 .043v-.031.031m.004.04c0-.009 0-.02-.004-.032.004.012.004.023.004.031m0 .043v-.031.031m0 .063v-.059.059m0 .039v-.024.024m0 .043v-.024zm0 .039v-.02zm0 .043v-.02zm0 .043v-.016zm0 .043v-.012zm-28.004 28.05c15.465 0 28.004-12.543 28.004-28.007 0 15.464-12.54 28.007-28.004 28.007m-5.625-.566c-.004 0-.008-.004-.012-.004.004 0 .008.004.012.004m.211.043c-.07-.016-.14-.027-.211-.043.07.016.14.027.211.043m.02.004c-.009-.004-.016-.004-.02-.004.008 0 .012 0 .02.004m.203.04c-.07-.017-.137-.028-.204-.04.067.012.133.023.204.04m.023.003c-.008-.004-.016-.004-.023-.004.008 0 .015 0 .023.004m.102.02c-.036-.008-.067-.016-.102-.02.035.004.066.012.102.02m.015 0h-.015.015m.121.023l-.062-.012.062.012m.008 0h-.008.008m.055.012l-.055-.012.055.012m.078.012c-.008 0-.02-.004-.027-.004.008 0 .02.004.027.004m.11.02c-.036-.005-.07-.013-.11-.02.04.008.074.015.11.02m.027.003c-.008 0-.016-.004-.028-.004.012 0 .02.004.028.004m.086.016c-.028-.004-.055-.012-.086-.016.03.004.058.012.086.016m.02 0h-.02.02m.019.004c-.008 0-.012 0-.02-.004a.035.035 0 00.02.004M516.954 111.348c-.015 0-.027-.004-.043-.008.016.004.028.008.043.008m.117.02c-.015-.004-.03-.004-.046-.008.015.004.03.004.046.008m.094.016c-.031-.004-.062-.012-.094-.016.032.004.063.012.094.016m.055.008c-.02-.004-.035-.008-.055-.008.02 0 .035.004.055.008m.055.008c-.02-.004-.036-.008-.055-.008a.3.3 0 01.055.008M517.423 111.419c-.023-.004-.043-.008-.066-.008.023 0 .043.004.066.008m.027.004c-.008 0-.02-.004-.027-.004.008 0 .02.004.027.004m.035.004c-.011 0-.023 0-.035-.004a.106.106 0 00.035.004m.04.008c-.016-.004-.028-.004-.04-.008.012.004.024.004.04.008m.117.016a1.305 1.305 0 010 0m.035.004c-.012-.004-.024-.004-.035-.004.011 0 .023 0 .035.004m.066.008c-.023-.004-.043-.004-.066-.008.023.004.043.004.066.008m.043.008c-.015-.004-.027-.004-.043-.008.016.004.028.004.043.008m.153.016c-.016 0-.028-.004-.04-.004.012 0 .024.004.04.004M518.045 111.499c-.013 0-.028 0-.04-.004a.13.13 0 00.04.004m.109.015c-.036-.004-.07-.008-.11-.015.04.008.074.011.11.015m.046.004c-.015 0-.03-.004-.046-.004.015 0 .03.004.046.004m.032.004c-.012 0-.02-.004-.032-.004.008 0 .02.004.032.004m.035.004c-.012 0-.024-.004-.035-.004.011 0 .023.004.035.004m.035.004c-.012 0-.023-.004-.035-.004.012 0 .023.004.035.004m.059.004c-.02 0-.04-.004-.059-.004.02 0 .04.004.059.004m.062.008c-.023-.004-.043-.004-.062-.008.02.004.039.004.062.008m.016 0h-.016.016m.02.004c-.009 0-.012 0-.02-.004a.035.035 0 00.02.004m.034.004c-.011 0-.023-.004-.035-.004.012 0 .024.004.035.004m.036.004c-.012 0-.024-.004-.036-.004.012 0 .024.004.036.004m.023.004c-.008-.004-.016-.004-.023-.004.008 0 .011 0 .023.004m.062.004c-.02 0-.043-.004-.062-.004.02 0 .043.004.062.004m.067.008c-.02-.004-.043-.004-.067-.008.024.004.047.004.067.008m.039.004c-.012-.004-.023-.004-.04-.004a.13.13 0 01.04.004m.07.004c-.023 0-.047-.004-.07-.004.023 0 .047.004.07.004m.024.004c-.008-.004-.016-.004-.024-.004.008 0 .016 0 .024.004m.132.012l-.132-.012.132.012m.036.004c-.012-.004-.024-.004-.036-.004.012 0 .024 0 .036.004m.035 0h-.035.035m.035.004c-.012 0-.023-.004-.035-.004.012 0 .023.004.035.004m.012 0h-.012.012m.14.012l-.14-.012.14.012m.047.004c-.015 0-.03-.004-.047-.004.016 0 .032.004.047.004m.031 0h-.03.03m.036.004c-.012 0-.024 0-.036-.004a.106.106 0 00.036.004m.086.008c-.028-.004-.059-.004-.086-.008.027.004.058.004.086.008m.011 0h-.011.011m.008 0h-.008.008m.031.004c-.011 0-.023-.004-.03-.004.007 0 .019.004.03.004m.008 0h-.008.008m.06.004c-.02-.004-.04-.004-.06-.004.02 0 .04 0 .06.004m.054.004c-.02-.004-.035-.004-.055-.004.02 0 .035 0 .055.004m.093.004c-.03 0-.062-.004-.093-.004.031 0 .062.004.093.004m.055.004c-.02 0-.035-.004-.055-.004.02 0 .036.004.055.004m.07.004c-.023 0-.046-.004-.07-.004.024 0 .047.004.07.004m.043 0h-.043.043m.102.008c-.031-.004-.066-.004-.102-.008.036.004.07.004.102.008m.047 0h-.047.047m.02 0h-.02.02m.07.004c-.024 0-.047 0-.07-.004a.415.415 0 00.07.004m.011 0h-.011.011m.012.004c-.004-.004-.008-.004-.012-.004.004 0 .008 0 .012.004m.113.004c-.039-.004-.078-.004-.113-.004.035 0 .074 0 .113.004m.02 0h-.02.02m.004 0h-.004.004m.004 0h-.004.004m.008 0h-.008.008m.117.004c-.039 0-.078 0-.117-.004.039.004.078.004.117.004m.133.004c-.043 0-.09 0-.133-.004.043.004.09.004.133.004m.14.004c-.046 0-.09 0-.132-.004.043.004.086.004.133.004m.07.004c-.02 0-.043 0-.067-.004.024.004.043.004.067.004m.062 0h-.058.058m.075 0h-.063.063m.066.004c-.02 0-.04-.004-.059-.004.02 0 .04.004.059.004m.039 0h-.031.031m0 0h.031-.031m.14 0h-.03.03m-.097 0h.059-.059m.266.004c-.02 0-.04-.004-.063-.004.02 0 .043.004.063.004m-.125-.004h.054-.054m-.043 0h.027-.027"/></clipPath><clipPath id="g"><path d="M494 57h53v29h-53zm0 0"/></clipPath><clipPath id="h"><path d="M494.91 83.781c0 .547.024 1.09.059 1.63.84-13.833 12.32-24.794 26.367-24.794 10.953 0 20.348 6.672 24.352 16.172.277-.352.546-.71.816-1.07-3.41-10.649-13.39-18.36-25.168-18.36-14.594 0-26.426 11.828-26.426 26.422"/></clipPath><clipPath id="j"><path d="M488 50h67v35h-67zm0 0"/></clipPath><clipPath id="k"><path d="M488.023 82.824c0 .688.032 1.375.07 2.055 1.063-17.438 15.536-31.254 33.243-31.254 17.703 0 32.176 13.816 33.238 31.254.04-.68.067-1.367.067-2.055 0-18.398-14.91-33.308-33.305-33.308-18.399 0-33.313 14.91-33.313 33.308"/></clipPath><clipPath id="l"><path d="M520 83h30v29h-30zm0 0"/></clipPath><clipPath id="m"><path d="M549.336 83.172zm0 .043v-.012zm0 .039v-.008zm.004.043v-.012zm0 .035v-.004.004m0 .074v-.015zm0 .043v-.02zm0 .043v-.02.02m0 .043v-.023zm0 .047v-.027.027m0 .047v-.031zm0 .055v-.043zm-28.844 27.992h.008zm.14.004h.001m.07.004h.004zm.063 0h.011zm.074 0h0m.066.004h.008-.008m.082 0h-.011.011m.059 0h.008zm.137 0h.008zm-.07 0h.015zm.14.004h.015zm0 0"/></clipPath><clipPath id="n"><path d="M495 74h55v38h-55zm0 0"/></clipPath><clipPath id="o"><path d="M546.504 75.719a26.438 26.438 0 011.25 8.062c0 .547-.02 1.09-.055 1.63a26.226 26.226 0 00-2.012-8.622c-8.898 11.32-22.703 18.594-38.203 18.594-4.234 0-8.343-.547-12.257-1.567 3.949 10.172 13.664 17.465 25.136 17.856.043.004.09.004.133.004h.008c.043.004.086.004.133.004h.004c.023.004.043.004.066.004H520.852c.02 0 .04.004.059.004H521.196c.02 0 .043.004.063.004h.078c15.465 0 28.004-12.543 28.004-28.008v-.101-.09-.063-.039-.058-.004-.043c0-.008 0-.02-.004-.032v-.007-.043-.032a27.942 27.942 0 00-1.68-9.074 43.35 43.35 0 01-1.152 1.621"/></clipPath><clipPath id="p"><path d="M545 75h3v11h-3zm0 0"/></clipPath><clipPath id="q"><path d="M545.688 76.79a26.226 26.226 0 012.011 8.62c.035-.539.055-1.082.055-1.629 0-2.812-.438-5.52-1.25-8.062-.27.36-.54.719-.816 1.07"/></clipPath><clipPath id="r"><path d="M486 81h71v85h-71zm0 0"/></clipPath><clipPath id="s"><path d="M521.336 162.742s-33.266-61.058-34.691-81.66a33.682 33.682 0 00-.055 1.89c0 19.188 34.746 82.958 34.746 82.958s34.742-63.77 34.742-82.957c0-.637-.02-1.262-.055-1.891-1.425 20.602-34.687 81.66-34.687 81.66"/></clipPath><clipPath id="t"><path d="M494 77h54v17h-54zm0 0"/></clipPath><clipPath id="u"><path d="M494.957 83.277c0 14.575 11.813 26.387 26.379 26.387 14.578 0 26.39-11.812 26.39-26.387 0-2.652-.39-5.21-1.117-7.629-20.738 0-37.718-1.289-50.109-1.289-1 2.786-1.543 5.79-1.543 8.918"/></clipPath><clipPath id="v"><path d="M494 84h54v17h-54zm0 0"/></clipPath><clipPath id="w"><path d="M494.957 83.277c0 14.575 11.813 26.387 26.379 26.387 14.578 0 26.39-11.812 26.39-26.387 0-2.652-.39-5.21-1.117-7.629-20.738 0-37.718-1.289-50.109-1.289-1 2.786-1.543 5.79-1.543 8.918"/></clipPath><clipPath id="x"><path d="M494 91h54v18h-54zm0 0"/></clipPath><clipPath id="y"><path d="M494.957 83.277c0 14.575 11.813 26.387 26.379 26.387 14.578 0 26.39-11.812 26.39-26.387 0-2.652-.39-5.21-1.117-7.629-20.738 0-37.718-1.289-50.109-1.289-1 2.786-1.543 5.79-1.543 8.918"/></clipPath><clipPath id="z"><path d="M494 98h54v12h-54zm0 0"/></clipPath><clipPath id="A"><path d="M494.957 83.277c0 14.575 11.813 26.387 26.379 26.387 14.578 0 26.39-11.812 26.39-26.387 0-2.652-.39-5.21-1.117-7.629-20.738 0-37.718-1.289-50.109-1.289-1 2.786-1.543 5.79-1.543 8.918"/></clipPath><clipPath id="B"><path d="M488 50h67v35h-67zm0 0"/></clipPath><clipPath id="C"><path d="M488.023 82.824c0 .688.032 1.375.07 2.055 1.063-17.438 15.536-31.254 33.243-31.254 17.703 0 32.176 13.816 33.238 31.254.04-.68.067-1.367.067-2.055 0-18.398-14.91-33.308-33.305-33.308-18.399 0-33.313 14.91-33.313 33.308"/></clipPath><clipPath id="D"><path d="M488 50h67v35h-67zm0 0"/></clipPath><clipPath id="E"><path d="M488.023 82.824c0 .688.032 1.375.07 2.055 1.063-17.438 15.536-31.254 33.243-31.254 17.703 0 32.176 13.816 33.238 31.254.04-.68.067-1.367.067-2.055 0-18.398-14.91-33.308-33.305-33.308-18.399 0-33.313 14.91-33.313 33.308"/></clipPath><clipPath id="F"><path d="M488 50h67v35h-67zm0 0"/></clipPath><clipPath id="G"><path d="M488.023 82.824c0 .688.032 1.375.07 2.055 1.063-17.438 15.536-31.254 33.243-31.254 17.703 0 32.176 13.816 33.238 31.254.04-.68.067-1.367.067-2.055 0-18.398-14.91-33.308-33.305-33.308-18.399 0-33.313 14.91-33.313 33.308"/></clipPath><radialGradient id="c" gradientUnits="userSpaceOnUse" cx="0" cy="0" fx="0" fy="0" r="87.219" gradientTransform="matrix(0 1 1 0 520.725 62.42)"><stop offset="0" stop-color="#5ecbf5"/><stop offset=".004" stop-color="#5dcbf5"/><stop offset=".016" stop-color="#5dcbf5"/><stop offset=".02" stop-color="#5ccbf5"/><stop offset=".023" stop-color="#5bcaf5"/><stop offset=".027" stop-color="#5bcaf5"/><stop offset=".031" stop-color="#5acaf5"/><stop offset=".043" stop-color="#5acaf5"/><stop offset=".047" stop-color="#59c9f4"/><stop offset=".051" stop-color="#59c9f4"/><stop offset=".055" stop-color="#58c8f4"/><stop offset=".059" stop-color="#58c8f4"/><stop offset=".063" stop-color="#57c8f4"/><stop offset=".066" stop-color="#57c8f4"/><stop offset=".07" stop-color="#56c7f4"/><stop offset=".074" stop-color="#56c7f3"/><stop offset=".078" stop-color="#55c6f3"/><stop offset=".082" stop-color="#55c6f3"/><stop offset=".086" stop-color="#55c6f3"/><stop offset=".09" stop-color="#54c6f3"/><stop offset=".094" stop-color="#54c6f3"/><stop offset=".098" stop-color="#54c5f3"/><stop offset=".102" stop-color="#53c5f2"/><stop offset=".113" stop-color="#52c5f2"/><stop offset=".117" stop-color="#52c4f2"/><stop offset=".121" stop-color="#52c3f1"/><stop offset=".125" stop-color="#52c3f0"/><stop offset=".129" stop-color="#51c2ef"/><stop offset=".141" stop-color="#51c1ef"/><stop offset=".145" stop-color="#50c1ee"/><stop offset=".148" stop-color="#50c0ee"/><stop offset=".152" stop-color="#50c0ed"/><stop offset=".156" stop-color="#50c0ed"/><stop offset=".16" stop-color="#4fc0ec"/><stop offset=".164" stop-color="#4fbfec"/><stop offset=".168" stop-color="#4ebfeb"/><stop offset=".172" stop-color="#4ebeeb"/><stop offset=".176" stop-color="#4dbdea"/><stop offset=".18" stop-color="#4dbce9"/><stop offset=".184" stop-color="#4dbce8"/><stop offset=".188" stop-color="#4dbbe8"/><stop offset=".191" stop-color="#4cbbe7"/><stop offset=".195" stop-color="#4cbae7"/><stop offset=".199" stop-color="#4cbae6"/><stop offset=".203" stop-color="#4cb9e6"/><stop offset=".207" stop-color="#4cb9e5"/><stop offset=".211" stop-color="#4cb9e4"/><stop offset=".215" stop-color="#4cb9e4"/><stop offset=".219" stop-color="#4bb8e4"/><stop offset=".223" stop-color="#4bb7e3"/><stop offset=".227" stop-color="#4ab7e2"/><stop offset=".23" stop-color="#4ab6e2"/><stop offset=".234" stop-color="#4ab6e2"/><stop offset=".238" stop-color="#4ab6e1"/><stop offset=".242" stop-color="#4ab5e0"/><stop offset=".246" stop-color="#4ab5e0"/><stop offset=".25" stop-color="#49b4df"/><stop offset=".254" stop-color="#49b4df"/><stop offset=".258" stop-color="#49b3de"/><stop offset=".262" stop-color="#49b3de"/><stop offset=".266" stop-color="#48b3dd"/><stop offset=".27" stop-color="#48b2dd"/><stop offset=".273" stop-color="#48b1dc"/><stop offset=".277" stop-color="#47b1dc"/><stop offset=".281" stop-color="#47b0db"/><stop offset=".285" stop-color="#47b0db"/><stop offset=".289" stop-color="#47b0da"/><stop offset=".293" stop-color="#46b0da"/><stop offset=".297" stop-color="#46afd9"/><stop offset=".301" stop-color="#46aed9"/><stop offset=".309" stop-color="#45aed8"/><stop offset=".313" stop-color="#45add7"/><stop offset=".316" stop-color="#45add6"/><stop offset=".32" stop-color="#45acd6"/><stop offset=".324" stop-color="#44acd6"/><stop offset=".328" stop-color="#44abd5"/><stop offset=".332" stop-color="#44aad4"/><stop offset=".336" stop-color="#43aad4"/><stop offset=".34" stop-color="#43aad3"/><stop offset=".344" stop-color="#43aad3"/><stop offset=".348" stop-color="#43a9d2"/><stop offset=".352" stop-color="#43a9d2"/><stop offset=".355" stop-color="#43a8d1"/><stop offset=".359" stop-color="#42a8d1"/><stop offset=".363" stop-color="#42a7d0"/><stop offset=".367" stop-color="#42a7cf"/><stop offset=".371" stop-color="#42a6cf"/><stop offset=".375" stop-color="#42a6ce"/><stop offset=".379" stop-color="#41a5ce"/><stop offset=".383" stop-color="#42a5cd"/><stop offset=".387" stop-color="#42a4cd"/><stop offset=".391" stop-color="#41a4cc"/><stop offset=".395" stop-color="#41a4cb"/><stop offset=".398" stop-color="#41a3cb"/><stop offset=".402" stop-color="#40a3ca"/><stop offset=".406" stop-color="#40a2c9"/><stop offset=".41" stop-color="#40a2c9"/><stop offset=".414" stop-color="#40a2c8"/><stop offset=".418" stop-color="#40a1c8"/><stop offset=".422" stop-color="#40a0c7"/><stop offset=".426" stop-color="#40a0c7"/><stop offset=".43" stop-color="#3f9fc6"/><stop offset=".434" stop-color="#3f9fc5"/><stop offset=".438" stop-color="#3f9fc5"/><stop offset=".441" stop-color="#3f9ec4"/><stop offset=".445" stop-color="#3e9ec4"/><stop offset=".449" stop-color="#3e9dc3"/><stop offset=".453" stop-color="#3e9dc3"/><stop offset=".457" stop-color="#3e9dc2"/><stop offset=".461" stop-color="#3e9cc2"/><stop offset=".465" stop-color="#3e9cc1"/><stop offset=".469" stop-color="#3e9bc1"/><stop offset=".473" stop-color="#3d9bc0"/><stop offset=".477" stop-color="#3d9ac0"/><stop offset=".48" stop-color="#3c9abf"/><stop offset=".484" stop-color="#3c99be"/><stop offset=".488" stop-color="#3c99be"/><stop offset=".492" stop-color="#3c99bd"/><stop offset=".496" stop-color="#3c99bd"/><stop offset=".5" stop-color="#3b98bd"/><stop offset=".504" stop-color="#3b97bc"/><stop offset=".508" stop-color="#3b97bb"/><stop offset=".512" stop-color="#3b97bb"/><stop offset=".516" stop-color="#3b97ba"/><stop offset=".52" stop-color="#3b96ba"/><stop offset=".523" stop-color="#3a95b9"/><stop offset=".527" stop-color="#3a95b8"/><stop offset=".531" stop-color="#3a94b8"/><stop offset=".535" stop-color="#3994b8"/><stop offset=".539" stop-color="#3994b7"/><stop offset=".543" stop-color="#3993b6"/><stop offset=".547" stop-color="#3992b5"/><stop offset=".551" stop-color="#3992b5"/><stop offset=".555" stop-color="#3992b5"/><stop offset=".559" stop-color="#3892b4"/><stop offset=".563" stop-color="#3891b4"/><stop offset=".566" stop-color="#3891b3"/><stop offset=".57" stop-color="#3891b2"/><stop offset=".574" stop-color="#3890b2"/><stop offset=".578" stop-color="#378fb1"/><stop offset=".582" stop-color="#378fb1"/><stop offset=".586" stop-color="#378fb1"/><stop offset=".59" stop-color="#378fb0"/><stop offset=".594" stop-color="#378eb0"/><stop offset=".598" stop-color="#378eaf"/><stop offset=".602" stop-color="#368dae"/><stop offset=".605" stop-color="#368dae"/><stop offset=".609" stop-color="#368cad"/><stop offset=".613" stop-color="#368cac"/><stop offset=".617" stop-color="#358cac"/><stop offset=".621" stop-color="#358bab"/><stop offset=".625" stop-color="#358bab"/><stop offset=".629" stop-color="#358aaa"/><stop offset=".633" stop-color="#358aaa"/><stop offset=".637" stop-color="#358aaa"/><stop offset=".641" stop-color="#358aa9"/><stop offset=".645" stop-color="#3589a8"/><stop offset=".648" stop-color="#3588a8"/><stop offset=".652" stop-color="#3488a7"/><stop offset=".656" stop-color="#3488a7"/><stop offset=".66" stop-color="#3488a6"/><stop offset=".664" stop-color="#3487a6"/><stop offset=".668" stop-color="#3387a5"/><stop offset=".672" stop-color="#3386a5"/><stop offset=".676" stop-color="#3385a4"/><stop offset=".68" stop-color="#3385a3"/><stop offset=".684" stop-color="#3384a3"/><stop offset=".688" stop-color="#3284a2"/><stop offset=".691" stop-color="#3284a2"/><stop offset=".695" stop-color="#3283a1"/><stop offset=".699" stop-color="#3283a1"/><stop offset=".703" stop-color="#3282a0"/><stop offset=".707" stop-color="#32829f"/><stop offset=".711" stop-color="#31829f"/><stop offset=".719" stop-color="#31819e"/><stop offset=".723" stop-color="#31819e"/><stop offset=".727" stop-color="#31809d"/><stop offset=".73" stop-color="#307f9c"/><stop offset=".734" stop-color="#307f9c"/><stop offset=".738" stop-color="#307f9b"/><stop offset=".742" stop-color="#307f9b"/><stop offset=".746" stop-color="#2f7e9a"/><stop offset=".75" stop-color="#2f7d9a"/><stop offset=".754" stop-color="#2f7d99"/><stop offset=".758" stop-color="#2f7d98"/><stop offset=".762" stop-color="#2f7d98"/><stop offset=".766" stop-color="#2f7c97"/><stop offset=".77" stop-color="#2e7b97"/><stop offset=".773" stop-color="#2e7b96"/><stop offset=".777" stop-color="#2e7a95"/><stop offset=".781" stop-color="#2e7a95"/><stop offset=".785" stop-color="#2d7994"/><stop offset=".789" stop-color="#2d7994"/><stop offset=".793" stop-color="#2d7993"/><stop offset=".797" stop-color="#2d7893"/><stop offset=".801" stop-color="#2d7892"/><stop offset=".805" stop-color="#2d7792"/><stop offset=".809" stop-color="#2d7791"/><stop offset=".813" stop-color="#2d7790"/><stop offset=".816" stop-color="#2d7790"/><stop offset=".82" stop-color="#2c768f"/><stop offset=".824" stop-color="#2c768f"/><stop offset=".828" stop-color="#2c758e"/><stop offset=".832" stop-color="#2c748d"/><stop offset=".836" stop-color="#2c748d"/><stop offset=".84" stop-color="#2c748c"/><stop offset=".844" stop-color="#2b738c"/><stop offset=".848" stop-color="#2b738b"/><stop offset=".852" stop-color="#2b728a"/><stop offset=".855" stop-color="#2b728a"/><stop offset=".859" stop-color="#2b7289"/><stop offset=".863" stop-color="#2a7188"/><stop offset=".867" stop-color="#2a7188"/><stop offset=".871" stop-color="#2a7087"/><stop offset=".875" stop-color="#2a7087"/><stop offset=".879" stop-color="#296f86"/><stop offset=".883" stop-color="#296f86"/><stop offset=".887" stop-color="#296e85"/><stop offset=".891" stop-color="#296e84"/><stop offset=".895" stop-color="#296d83"/><stop offset=".898" stop-color="#296d83"/><stop offset=".902" stop-color="#286c82"/><stop offset=".906" stop-color="#286c82"/><stop offset=".91" stop-color="#286c81"/><stop offset=".914" stop-color="#286c81"/><stop offset=".918" stop-color="#286b80"/><stop offset=".922" stop-color="#276b80"/><stop offset=".926" stop-color="#276a7f"/><stop offset=".93" stop-color="#27697e"/><stop offset=".934" stop-color="#27697e"/><stop offset=".938" stop-color="#27697d"/><stop offset=".941" stop-color="#27697d"/><stop offset=".945" stop-color="#27687c"/><stop offset=".949" stop-color="#26687b"/><stop offset=".953" stop-color="#26677b"/><stop offset=".957" stop-color="#26677a"/><stop offset=".961" stop-color="#266779"/><stop offset=".965" stop-color="#266679"/><stop offset=".969" stop-color="#266578"/><stop offset=".973" stop-color="#266577"/><stop offset=".977" stop-color="#256477"/><stop offset=".98" stop-color="#256476"/><stop offset=".984" stop-color="#256375"/><stop offset=".988" stop-color="#256375"/><stop offset=".992" stop-color="#256374"/><stop offset=".996" stop-color="#256274"/><stop offset="1" stop-color="#246273"/></radialGradient><radialGradient id="f" gradientUnits="userSpaceOnUse" cx="0" cy="0" fx="0" fy="0" r="28.008" gradientTransform="matrix(1 0 0 -1 521.334 83.67)"><stop offset="0" stop-color="#fff"/><stop offset=".25" stop-color="#fff"/><stop offset=".438" stop-color="#fff"/><stop offset=".473" stop-color="#fff"/><stop offset=".488" stop-color="#feffff"/><stop offset=".52" stop-color="#feffff"/><stop offset=".523" stop-color="#fdfefe"/><stop offset=".535" stop-color="#fdfdfd"/><stop offset=".547" stop-color="#fdfdfd"/><stop offset=".551" stop-color="#fdfcfd"/><stop offset=".555" stop-color="#fcfcfc"/><stop offset=".566" stop-color="#fcfcfc"/><stop offset=".57" stop-color="#fcfcfc"/><stop offset=".574" stop-color="#fbfcfc"/><stop offset=".586" stop-color="#fbfcfc"/><stop offset=".59" stop-color="#fbfbfc"/><stop offset=".594" stop-color="#fafbfb"/><stop offset=".605" stop-color="#fafafa"/><stop offset=".629" stop-color="#f9f9f9"/><stop offset=".637" stop-color="#f8f9f9"/><stop offset=".645" stop-color="#f8f8f9"/><stop offset=".652" stop-color="#f8f8f8"/><stop offset=".656" stop-color="#f7f7f7"/><stop offset=".66" stop-color="#f7f7f7"/><stop offset=".668" stop-color="#f6f6f6"/><stop offset=".688" stop-color="#f6f5f5"/><stop offset=".691" stop-color="#f5f4f4"/><stop offset=".695" stop-color="#f5f4f4"/><stop offset=".699" stop-color="#f4f4f3"/><stop offset=".703" stop-color="#f4f3f3"/><stop offset=".707" stop-color="#f3f3f2"/><stop offset=".715" stop-color="#f2f2f1"/><stop offset=".719" stop-color="#f2f1f1"/><stop offset=".723" stop-color="#f1f0f0"/><stop offset=".727" stop-color="#f0f0f0"/><stop offset=".73" stop-color="#f0efef"/><stop offset=".734" stop-color="#efefee"/><stop offset=".738" stop-color="#efeeee"/><stop offset=".742" stop-color="#eee"/><stop offset=".746" stop-color="#ededed"/><stop offset=".75" stop-color="#edecec"/><stop offset=".754" stop-color="#ececeb"/><stop offset=".758" stop-color="#ecebeb"/><stop offset=".762" stop-color="#ebebea"/><stop offset=".766" stop-color="#ebeae9"/><stop offset=".77" stop-color="#ebe9e9"/><stop offset=".773" stop-color="#eae9e8"/><stop offset=".777" stop-color="#e9e8e7"/><stop offset=".781" stop-color="#e8e8e7"/><stop offset=".785" stop-color="#e8e7e6"/><stop offset=".789" stop-color="#e7e6e5"/><stop offset=".793" stop-color="#e6e5e5"/><stop offset=".797" stop-color="#e5e4e4"/><stop offset=".801" stop-color="#e5e4e4"/><stop offset=".805" stop-color="#e4e3e3"/><stop offset=".809" stop-color="#e3e3e2"/><stop offset=".813" stop-color="#e2e2e1"/><stop offset=".816" stop-color="#e2e2e0"/><stop offset=".82" stop-color="#e2e1df"/><stop offset=".824" stop-color="#e1e0de"/><stop offset=".828" stop-color="#e0dfdd"/><stop offset=".832" stop-color="#dfdedc"/><stop offset=".836" stop-color="#dfdddb"/><stop offset=".84" stop-color="#dedcda"/><stop offset=".844" stop-color="#dddbd9"/><stop offset=".848" stop-color="#dbd9d9"/><stop offset=".852" stop-color="#dad8d8"/><stop offset=".855" stop-color="#dad7d7"/><stop offset=".859" stop-color="#d9d7d6"/><stop offset=".863" stop-color="#d8d6d5"/><stop offset=".867" stop-color="#d7d5d3"/><stop offset=".871" stop-color="#d6d4d3"/><stop offset=".875" stop-color="#d5d3d2"/><stop offset=".879" stop-color="#d4d2d1"/><stop offset=".883" stop-color="#d3d1d0"/><stop offset=".887" stop-color="#d2d0ce"/><stop offset=".891" stop-color="#d0cece"/><stop offset=".895" stop-color="#cfcdcc"/><stop offset=".898" stop-color="#cecbca"/><stop offset=".902" stop-color="#cdcac9"/><stop offset=".906" stop-color="#cbc8c8"/><stop offset=".91" stop-color="#cac7c7"/><stop offset=".914" stop-color="#c9c6c5"/><stop offset=".918" stop-color="#c8c5c4"/><stop offset=".922" stop-color="#c6c3c3"/><stop offset=".926" stop-color="#c5c2c2"/><stop offset=".93" stop-color="#c3c1c1"/><stop offset=".934" stop-color="#c2bfbf"/><stop offset=".938" stop-color="#c1bebd"/><stop offset=".941" stop-color="#bfbdbc"/><stop offset=".945" stop-color="#bebbbb"/><stop offset=".949" stop-color="#bcb9b9"/><stop offset=".953" stop-color="#bbb8b8"/><stop offset=".957" stop-color="#b9b7b7"/><stop offset=".961" stop-color="#b8b6b6"/><stop offset=".965" stop-color="#b7b4b4"/><stop offset=".969" stop-color="#b5b2b3"/><stop offset=".973" stop-color="#b3b1b1"/><stop offset=".977" stop-color="#b2afaf"/><stop offset=".98" stop-color="#b0adae"/><stop offset=".984" stop-color="#aeacac"/><stop offset=".988" stop-color="#adaaaa"/><stop offset=".992" stop-color="#aba9a9"/><stop offset=".996" stop-color="#a9a7a8"/><stop offset="1" stop-color="#a8a6a7"/></radialGradient><radialGradient id="i" gradientUnits="userSpaceOnUse" cx="0" cy="0" fx="0" fy="0" r="28.008" gradientTransform="matrix(1 0 0 -1 521.334 83.685)"><stop offset="0" stop-color="#fff"/><stop offset="1" stop-color="#fff"/></radialGradient></defs><g transform="translate(306.609 510.31)"><path d="M-305.662-468.27s1.607-23.482 16.785-32.679c15.179-9.196 25.804-8.75 25.804-8.75s17.768-.535 29.554 12.233c11.785 12.767 12.946 24.285 12.946 24.285v7.5l-1.875 4.91-7.768-23.75-15-14.553-14.553-2.767-14.643.803-20.268 12.59-10 25.714-.893-3.483z" fill="#0ff" fill-rule="evenodd"/><ellipse ry="36.429" rx="36.786" cy="-465.859" cx="-262.716" fill="#fff"/><g clip-path="url(#a)" transform="matrix(1.25 0 0 1.25 -914.74 -570.78)"><g clip-path="url(#b)"><path d="M486.59 48.23h69.488v117.7H486.59zm0 0" fill="url(#c)"/></g></g><g clip-path="url(#d)" transform="matrix(1.25 0 0 1.25 -914.74 -570.78)"><g clip-path="url(#e)"><path d="M493.324 111.691V55.676h56.016v56.015zm0 0" fill="url(#f)"/></g></g><g clip-path="url(#g)" transform="matrix(1.25 0 0 1.25 -914.74 -570.78)"><g clip-path="url(#h)"><path d="M494.91 85.41V57.36h51.594v28.05zm0 0" fill="url(#i)"/></g></g><g clip-path="url(#j)" transform="matrix(1.25 0 0 1.25 -914.74 -570.78)"><g clip-path="url(#k)"><use height="100%" width="100%" transform="matrix(.24 0 0 .24 488.025 49.515)" xlink:href="#image152871"/></g></g><g clip-path="url(#l)" transform="matrix(1.25 0 0 1.25 -914.74 -570.78)"><g clip-path="url(#m)"><use height="100%" width="100%" transform="matrix(.48 0 0 -.48 519.835 112.37)" xlink:href="#image152874"/></g></g><g clip-path="url(#n)" transform="matrix(1.25 0 0 1.25 -914.74 -570.78)"><g clip-path="url(#o)"><use height="100%" width="100%" transform="matrix(.48 0 0 -.48 494.395 112.37)" xlink:href="#image152877"/></g></g><g clip-path="url(#p)" transform="matrix(1.25 0 0 1.25 -914.74 -570.78)"><g clip-path="url(#q)"><use height="100%" width="100%" transform="matrix(.48 0 0 -.48 544.795 85.97)" xlink:href="#image152880"/></g></g><g clip-path="url(#r)" transform="matrix(1.25 0 0 1.25 -914.74 -570.78)"><g clip-path="url(#s)"><use height="100%" width="100%" transform="matrix(.48 0 0 -.48 485.755 166.61)" xlink:href="#image152883"/></g></g><g clip-path="url(#t)" transform="matrix(1.25 0 0 1.25 -914.74 -570.78)"><g clip-path="url(#u)"><path d="M547.852 77.012a.334.334 0 00-.332.297c-.165 1.418-2.32 3.007-4.958 3.007-2.25 0-5.316-1.75-5.316-3.304 0 1.554-2.656 3.304-5.293 3.304-2.176 0-5.52-1.707-5.52-3.304 0 1.535-3.101 3.304-5.093 3.304-2.633 0-5.285-1.77-5.285-3.304 0 1.554-2.703 3.304-5.32 3.304-2.637 0-5.317-1.793-5.317-3.304 0 1.511-2.648 3.304-5.29 3.304-2.64 0-4.796-1.59-4.96-3.007a.334.334 0 00-.332-.297h-.023a.334.334 0 00-.332.293l-.028.148-.004.07v15.942a.33.33 0 00.332.332l53.082-.492a.332.332 0 00.332-.332v-15.63a.342.342 0 00-.344-.331" fill="#0063a6"/></g></g><g clip-path="url(#v)" transform="matrix(1.25 0 0 1.25 -914.74 -570.78)"><g clip-path="url(#w)"><path d="M547.598 84.004a.334.334 0 00-.332.297c-.164 1.422-2.32 3.011-4.961 3.011-2.246 0-5.317-1.753-5.317-3.308 0 1.555-2.652 3.308-5.293 3.308-2.172 0-5.515-1.71-5.515-3.308 0 1.535-3.102 3.308-5.094 3.308-2.637 0-5.29-1.773-5.29-3.308 0 1.555-2.702 3.308-5.316 3.308-2.636 0-5.316-1.796-5.316-3.308 0 1.512-2.652 3.308-5.293 3.308-2.637 0-4.793-1.59-4.96-3.011a.333.333 0 00-.329-.297h-.027a.34.34 0 00-.332.297l-.024.148-.008.07v15.938c0 .188.149.336.332.336l53.082-.492a.333.333 0 00.336-.336V84.34a.345.345 0 00-.343-.336" fill="#0070b5"/></g></g><g clip-path="url(#x)" transform="matrix(1.25 0 0 1.25 -914.74 -570.78)"><g clip-path="url(#y)"><path d="M547.938 91.598a.334.334 0 00-.333.293c-.164 1.421-2.32 3.011-4.96 3.011-2.247 0-5.313-1.75-5.313-3.304 0 1.554-2.656 3.304-5.293 3.304-2.176 0-5.52-1.707-5.52-3.304 0 1.53-3.101 3.304-5.09 3.304-2.64 0-5.288-1.773-5.288-3.304 0 1.554-2.707 3.304-5.32 3.304-2.637 0-5.317-1.793-5.317-3.304 0 1.511-2.652 3.304-5.29 3.304-2.636 0-4.796-1.59-4.964-3.011a.327.327 0 00-.328-.293h-.027a.33.33 0 00-.329.293l-.027.152-.008.07v15.938c0 .183.148.332.332.332l53.086-.492c.18 0 .332-.149.332-.332v-15.63a.342.342 0 00-.344-.331" fill="#0078c5"/></g></g><g clip-path="url(#z)" transform="matrix(1.25 0 0 1.25 -914.74 -570.78)"><g clip-path="url(#A)"><path d="M547.852 98.676a.337.337 0 00-.332.297c-.165 1.422-2.32 3.011-4.958 3.011-2.25 0-5.316-1.75-5.316-3.308 0 1.558-2.656 3.308-5.293 3.308-2.176 0-5.52-1.71-5.52-3.308 0 1.535-3.101 3.308-5.093 3.308-2.633 0-5.285-1.773-5.285-3.308 0 1.558-2.703 3.308-5.32 3.308-2.637 0-5.317-1.793-5.317-3.308 0 1.515-2.648 3.308-5.29 3.308-2.64 0-4.796-1.59-4.96-3.011a.337.337 0 00-.332-.297h-.023a.337.337 0 00-.332.297l-.028.144-.004.074v15.938c0 .187.145.332.332.332l53.082-.488a.333.333 0 00.332-.336V99.012a.345.345 0 00-.344-.336" fill="#0082d4"/></g></g><g clip-path="url(#B)" transform="matrix(1.25 0 0 1.25 -306.287 -509.773)"><g clip-path="url(#C)"><use xlink:href="#image152871" transform="matrix(.24 0 0 .24 488.025 49.515)" width="100%" height="100%"/></g></g><g clip-path="url(#D)" transform="matrix(1.25 0 0 1.25 -306.287 -509.773)"><g clip-path="url(#E)"><use xlink:href="#image152871" transform="matrix(.24 0 0 .24 488.025 49.515)" width="100%" height="100%"/></g></g><g clip-path="url(#F)" transform="matrix(1.25 0 0 1.25 -306.287 -509.773)"><g clip-path="url(#G)"><use xlink:href="#image152871" transform="matrix(.24 0 0 .24 488.025 49.515)" width="100%" height="100%"/></g></g></g></svg>